<?xml version="1.0" encoding="UTF-8"?>
<!DOCTYPE svg PUBLIC "-//W3C//DTD SVG 1.1//EN" "http://www.w3.org/Graphics/SVG/1.1/DTD/svg11.dtd">
<!-- Creator: CorelDRAW -->
<svg xmlns="http://www.w3.org/2000/svg" xml:space="preserve" width="16.2202in" height="2.65285in" version="1.1" style="shape-rendering:geometricPrecision; text-rendering:geometricPrecision; image-rendering:optimizeQuality; fill-rule:evenodd; clip-rule:evenodd"
viewBox="0 0 14870.76 2432.14"
 xmlns:xlink="http://www.w3.org/1999/xlink"
 xmlns:xodm="http://www.corel.com/coreldraw/odm/2003">
 <defs>
  <style type="text/css">
   <![CDATA[
    .fil0 {fill:none}
    .fil1 {fill:#00AFEF}
    .fil3 {fill:#00AFEF}
    .fil2 {fill:#00AFEF;fill-rule:nonzero}
   ]]>
  </style>
 </defs>
 <g id="Layer_x0020_1">
  <metadata id="CorelCorpID_0Corel-Layer"/>
  <g id="_2056816230240">
   <path class="fil0" d="M1216.07 0c671.62,0 1216.07,544.44 1216.07,1216.07 0,671.61 -544.45,1216.07 -1216.07,1216.07 -671.62,0 -1216.07,-544.45 -1216.07,-1216.07 0,-671.63 544.44,-1216.07 1216.07,-1216.07z"/>
   <path class="fil1" d="M107.23 795.47l107.29 35.6c40.42,12.68 313.87,104.7 328.49,104.76 9.76,-17.13 22.39,-50.52 38.64,-78.48 14.26,-24.58 29.75,-47.57 46.43,-71.49 17.79,-25.5 59.16,-73.61 82.83,-94.62 5.21,-4.62 26.86,-23.79 30.57,-29.58 -3.34,-9.55 -56.57,-79.91 -66.24,-93.07 -21.88,-29.78 -44.75,-61.49 -66.65,-92.43l-134.8 -185.04c-16.29,4.75 -102.39,89.99 -114.16,101.8 -66.11,66.15 -137.52,166.6 -184.61,251.16 -11.46,20.6 -68.34,132.15 -67.79,151.38z"/>
   <path class="fil2" d="M731.79 1283.6l-37.59 0 -26.31 -35.6 -58.94 0 0 35.6 -30.27 0 0 -65.87 103.25 0c5.34,0 10.08,-1.78 13.85,-5.54 3.76,-3.95 5.73,-8.5 5.73,-13.84 0,-5.35 -1.97,-9.89 -5.73,-13.85 -3.77,-3.76 -8.51,-5.54 -13.85,-5.54l-103.25 0 0 -30.45 103.25 0.19c6.92,0 13.25,1.19 19.38,3.96 12.07,5.34 20.97,14.24 26.51,26.51 2.57,6.32 3.96,12.85 3.96,19.18 0,6.32 -1.39,12.85 -3.96,19.18 -5.33,12.07 -13.85,20.77 -25.71,26.1l29.67 39.95zm539.38 0l-153.09 0 0 -30.26 153.09 0 0 30.26zm0 -104.23l-153.09 0 0 -30.25 153.09 0 0 30.25zm-12.46 52.02l-128.37 0 0 -30.25 128.37 0 0 30.25zm131.64 52.22l-65.27 0c-5.93,0 -11.47,-0.99 -16.61,-3.16 -10.68,-4.35 -18.59,-11.47 -23.73,-21.96 -2.38,-4.94 -3.57,-10.48 -3.57,-16.22l30.27 0c0,2.38 0.79,4.36 2.17,5.94 1.39,1.77 3.16,2.96 5.34,3.75 1.99,0.79 4.16,1.38 6.13,1.38l65.27 0c1.97,0 4.15,-0.6 6.14,-1.38 2.17,-0.79 3.96,-1.98 5.33,-3.75 1.39,-1.58 2.18,-3.57 2.18,-5.94 0,-2.36 -0.78,-4.35 -2.18,-5.93 -1.38,-1.58 -3.16,-2.96 -5.33,-3.76 -1.99,-0.99 -4.16,-1.38 -6.14,-1.38l-65.27 0c-5.93,0 -11.47,-1 -16.61,-2.97 -10.68,-4.35 -18.59,-11.67 -23.73,-21.96 -2.38,-4.94 -3.57,-10.48 -3.57,-16.21 0,-5.93 1.19,-11.28 3.57,-16.42 5.14,-10.28 13.05,-17.6 23.73,-21.76 5.14,-2.18 10.68,-3.16 16.61,-3.16l65.27 0c5.93,0 11.47,0.99 16.62,3.16 10.68,4.16 18.59,11.48 23.73,21.76 2.38,5.14 3.57,10.49 3.57,16.42l-30.27 0c0,-2.38 -0.78,-4.35 -2.18,-5.93 -1.38,-1.78 -3.16,-2.97 -5.33,-3.77 -1.99,-0.99 -4.16,-1.38 -6.14,-1.38l-65.27 0c-1.97,0 -4.15,0.39 -6.13,1.38 -2.18,0.8 -3.95,1.99 -5.34,3.77 -1.38,1.58 -2.17,3.56 -2.17,5.93 0,2.37 0.79,4.35 2.17,5.93 1.39,1.58 3.16,2.77 5.34,3.75 1.99,0.8 4.16,1.19 6.13,1.19l65.27 0c5.93,0 11.47,1.19 16.62,3.36 10.68,4.15 18.59,11.47 23.73,21.75 2.38,5.15 3.57,10.49 3.57,16.21 0,5.74 -1.19,11.28 -3.57,16.22 -5.14,10.49 -13.05,17.61 -23.73,21.96 -5.15,2.18 -10.68,3.16 -16.62,3.16zm131.03 0l-30.26 0 0 -104.83 -49.06 0 0 -30.25 128.36 0 0 30.25 -49.05 0 0 104.83zm140.71 0l-30.26 0 0 -104.83 -49.06 0 0 -30.25 128.36 0 0 30.25 -49.05 0 0 104.83zm191.34 0l-34.61 0 -54.19 -96.71 -54.19 96.71 -34.61 0 75.55 -135.08 26.51 0 75.55 135.08zm-752 0l-30.06 0 0 -88.21 -46.29 66.06 -24.71 0 -46.28 -66.06 0 88.21 -30.27 0 0 -135.08 34.22 0 54.59 77.92 54.6 -77.92 34.21 0 0 135.08zm-184.86 0l-34.61 0 -54.19 -96.71 -54.19 96.71 -34.61 0 75.55 -135.08 26.51 0 75.55 135.08z"/>
   <path class="fil3" d="M126.58 921.45l-56.52 -16.6c-9.92,20.31 -25.64,116.89 -29.95,143.92 -24.63,154.45 -8.33,333.63 29.42,478.41 14.15,-1.04 333.66,-105.85 380.12,-121.72 16.6,-5.67 39.38,-11.46 55.5,-18.09 1.85,-6.9 -9.54,-67.48 -11.59,-81.77 -7.41,-51.67 -8.35,-125.25 -0.5,-176.4l13.72 -82.25 -11.12 -5.64c-5.1,-1.69 -8.57,-2.58 -13.83,-4.35l-355.26 -115.51z"/>
   <path class="fil1" d="M106.68 1637.55c3.38,24.99 52.36,121.7 67.8,149.22 37.7,67.13 81.93,134.38 132.24,193.15 34.11,39.82 69.84,76.45 106.01,110.92 16.45,15.68 38.47,35.34 58.77,49.65 8.07,-4.37 27.63,-34.23 34.55,-43.83 49.92,-69.18 118.12,-166.44 167.82,-231.2 12.1,-15.75 22.17,-30.67 34.05,-46.68 6.53,-8.79 10.24,-14.19 16.68,-22.77 4.17,-5.55 13.12,-17.21 16.89,-24.66 -4.03,-9.14 -21.48,-21.74 -28.97,-28.74 -48.04,-44.85 -97.31,-109.5 -130.25,-167.26 -15.84,-27.82 -30.9,-65.09 -39.24,-79.65 -10.98,-0.04 -192.13,61.16 -217.88,69.31 -26.54,8.4 -210.18,65.87 -218.46,72.54z"/>
   <path class="fil1" d="M566.37 2209.7c137.19,92.76 258.33,133.59 417.41,170.9 45.4,10.65 126.85,21.67 175.8,21.1 0,-51.35 3.56,-446 -2.1,-460.21 -63.97,-5.14 -121.52,-17.08 -176.78,-36.06 -27,-9.28 -51.36,-19.39 -75.12,-30.36 -25.1,-11.57 -46.22,-25.78 -69.58,-37.08 -10.36,7.75 -25.93,33.56 -34,44.61 -12.97,17.79 -22.82,31.33 -34.03,46.74 -20.86,28.68 -45.88,62.44 -67.88,93.62 -15.45,21.91 -131.34,176.81 -133.72,186.74z"/>
   <path class="fil1" d="M1273.59 2401.96c32.56,2.32 137.99,-13.33 172.28,-20.76 55.66,-12.07 104.25,-24.38 154.71,-41.4 59.81,-20.18 216.43,-89.17 264.62,-130.1 -1.78,-9.57 -55.39,-79.47 -65.73,-93.82l-202.13 -277.61 -73.1 37.89c-23.64,10.89 -52.36,22.53 -78.76,31.39 -48.13,16.16 -86.34,23.64 -136.25,30.44 -41.13,5.6 -36.72,-1.36 -36.5,20.06 0.36,36.9 -2.35,422.78 0.86,443.91z"/>
   <path class="fil1" d="M1690.24 1769.05c2.84,10.08 52.81,75.5 65.3,93.21 22.22,31.48 43.75,59.7 68.06,93.38 16.91,23.41 127.36,178.56 135.94,184.95 20.09,-10.01 97.45,-85.22 114.18,-102.8 68.56,-72.08 137.16,-164.14 184.19,-251.73 9.86,-18.36 68.11,-131.66 67.43,-149.89l-434.84 -141.51c-14.19,18.53 -53.02,139.22 -169.51,245.77 -9.71,8.88 -18.23,18.74 -30.75,28.62z"/>
   <path class="fil3" d="M1925.13 1045.13c2.6,38.34 19.05,77.32 19.05,158.7 0,48.25 -2.31,61.66 -6.03,108.55 -1.33,16.76 -13.75,64.15 -11.9,74.58 34.43,13.12 70.99,22.97 107.88,35.37l327.79 105.5c33.47,-137.74 41.83,-195.6 41.83,-337.85 0,-92.36 -19.18,-204.3 -41.42,-285.32 -27.05,3.07 -376.99,124.29 -437.19,140.47z"/>
   <path class="fil1" d="M1689.96 661.66c7.72,9.25 41.79,37.84 59.48,57.84 42.14,47.61 69.37,82.44 100.43,137.37l40.45 79.44 435.28 -140.45c-1.43,-21.66 -55.46,-127.96 -67.31,-149.45 -24.96,-45.26 -54.6,-91.6 -85.13,-133.73 -38.81,-53.55 -104.94,-128.58 -153.98,-171.43 -16.93,-14.8 -40.88,-38.92 -59.65,-50.4 -7.95,6.36 -126.48,172.68 -135.27,184.76 -19.45,26.72 -44.14,59.14 -67.03,92.04l-67.27 94.02z"/>
   <path class="fil1" d="M1272.86 489.38c32.06,5.4 62.99,6.95 92.94,13.79 139.42,31.83 222.13,87.99 231.53,89.98l234.74 -321.84c7.26,-10.21 30.12,-38.47 33.48,-47.98 -5.36,-6.18 -20.4,-14.51 -28.98,-19.92 -10.51,-6.61 -20.52,-12.5 -30.42,-18.17 -21.12,-12.1 -43.46,-23.69 -64.83,-34.56 -89.74,-45.67 -191.22,-78.57 -291.84,-99.46 -39.61,-8.22 -137.26,-24.15 -176.18,-20.83l-0.45 459z"/>
   <path class="fil1" d="M566.18 223.32l200.02 277.33c10.57,14.07 61.29,86.86 69.81,92.73l70.41 -36.92c23.6,-11.23 50.24,-21.57 75.24,-30.45 71.56,-25.4 164.63,-32.6 177.12,-37.37l0.81 -457.44c-91.78,-4.59 -244.38,32.38 -331.44,61.96 -54.11,18.38 -234.37,97.31 -261.96,130.16z"/>
  </g>
  <path class="fil2" d="M4141.17 1816.78l-334.21 0 -233.96 -316.63 -524.19 0 0 316.63 -269.14 0 0 -585.77 918.23 0c47.5,0 89.71,-15.83 123.14,-49.25 33.42,-35.17 51,-75.63 51,-123.13 0,-47.5 -17.58,-87.94 -51,-123.13 -33.42,-33.42 -75.64,-49.25 -123.14,-49.25l-918.23 0 0 -270.9 918.23 1.77c61.56,0 117.85,10.56 172.39,35.17 107.31,47.5 186.46,126.66 235.71,235.71 22.87,56.29 35.17,114.34 35.17,170.63 0,56.29 -12.31,114.34 -35.17,170.63 -47.5,107.29 -123.14,184.7 -228.67,232.19l263.85 355.33zm10729.59 0l-325.43 0 -765.19 -860.17 0 860.17 -269.14 0 0 -1201.44 323.67 0 768.7 861.94 0 -861.94 267.38 0 0 1201.44zm-1424.23 0l-307.84 0 -481.98 -860.17 -481.98 860.17 -307.83 0 671.96 -1201.44 235.71 0 671.96 1201.44zm-1939.65 0l-578.73 0c-54.54,0 -103.79,-10.55 -151.29,-29.9 -96.75,-43.98 -165.35,-112.58 -209.33,-209.33 -19.35,-47.5 -29.9,-98.5 -29.9,-151.29l0 -415.13c0,-52.77 10.56,-103.78 29.9,-151.27 43.98,-96.75 112.58,-165.35 209.33,-209.33 47.5,-19.35 96.75,-29.9 151.29,-29.9l578.73 0c54.52,0 105.54,10.56 153.02,29.9 95,43.98 165.36,112.58 207.58,209.33 21.11,47.5 29.9,98.5 29.9,151.27l-267.38 0c0,-33.42 -12.31,-63.33 -36.93,-86.19 -22.88,-22.87 -52.78,-35.17 -86.19,-35.17l-578.73 0c-33.42,0 -61.58,12.31 -86.19,35.17 -24.63,22.87 -35.19,52.77 -35.19,86.19l0 415.13c0,33.42 10.55,61.57 35.19,86.2 24.62,22.87 52.77,35.18 86.19,35.18l578.73 0c33.41,0 63.31,-12.31 86.19,-35.18 24.62,-24.63 36.93,-52.78 36.93,-86.2l267.38 0c0,52.78 -8.79,103.79 -29.9,151.29 -42.22,96.75 -112.58,165.35 -207.58,209.33 -47.49,19.35 -98.5,29.9 -153.02,29.9zm-1508.07 0l-580.48 0c-52.78,0 -102.04,-8.79 -147.77,-28.15 -94.98,-38.69 -165.35,-102.02 -211.08,-195.25 -21.11,-43.98 -31.67,-93.23 -31.67,-144.23l269.14 0c0,21.1 7.04,38.69 19.35,52.77 12.32,15.83 28.15,26.39 47.5,33.42 17.6,7.04 36.94,12.31 54.54,12.31l580.48 0c17.6,0 36.94,-5.27 54.54,-12.31 19.35,-7.03 35.17,-17.59 47.48,-33.42 12.32,-14.08 19.35,-31.67 19.35,-52.77 0,-21.12 -7.02,-38.71 -19.35,-52.78 -12.31,-14.06 -28.14,-26.39 -47.48,-33.41 -17.6,-8.8 -36.94,-12.32 -54.54,-12.32l-580.48 0c-52.78,0 -102.04,-8.79 -147.77,-26.39 -94.98,-38.69 -165.35,-103.79 -211.08,-195.25 -21.11,-43.98 -31.67,-93.23 -31.67,-144.25 0,-52.77 10.56,-100.27 31.67,-146 45.73,-91.46 116.1,-156.56 211.08,-193.5 45.73,-19.35 94.98,-28.14 147.77,-28.14l580.48 0c52.77,0 102.02,8.79 147.77,28.14 94.98,36.94 165.35,102.04 211.08,193.5 21.11,45.73 31.65,93.23 31.65,146l-269.14 0c0,-21.1 -7.02,-38.7 -19.35,-52.77 -12.31,-15.83 -28.14,-26.39 -47.48,-33.42 -17.6,-8.79 -36.94,-12.31 -54.54,-12.31l-580.48 0c-17.6,0 -36.94,3.52 -54.54,12.31 -19.35,7.04 -35.17,17.6 -47.5,33.42 -12.31,14.07 -19.35,31.67 -19.35,52.77 0,21.11 7.04,38.71 19.35,52.77 12.32,14.07 28.15,24.63 47.5,33.42 17.6,7.04 36.94,10.56 54.54,10.56l580.48 0c52.77,0 102.02,10.56 147.77,29.9 94.98,36.94 165.35,102.04 211.08,193.5 21.11,45.73 31.65,93.23 31.65,144.25 0,51 -10.54,100.25 -31.65,144.23 -45.73,93.23 -116.1,156.56 -211.08,195.25 -45.75,19.36 -95,28.15 -147.77,28.15zm-926.44 0l-307.84 0 -481.98 -860.17 -481.98 860.17 -307.83 0 671.96 -1201.44 235.71 0 671.96 1201.44zm-1643.54 0l-267.39 0 0 -784.54 -411.62 587.52 -219.88 0 -411.62 -587.52 0 784.54 -269.14 0 0 -1201.44 304.32 0 485.49 693.07 485.5 -693.07 304.32 0 0 1201.44zm-1644.13 0l-307.84 0 -481.98 -860.17 -481.98 860.17 -307.83 0 671.96 -1201.44 235.71 0 671.96 1201.44z"/>
 </g>
</svg>
