<?xml version="1.0" encoding="UTF-8"?>
<!DOCTYPE svg PUBLIC "-//W3C//DTD SVG 1.1//EN" "http://www.w3.org/Graphics/SVG/1.1/DTD/svg11.dtd">
<!-- Creator: CorelDRAW -->
<svg xmlns="http://www.w3.org/2000/svg" xml:space="preserve" width="7.82708in" height="7.82708in" version="1.1" style="shape-rendering:geometricPrecision; text-rendering:geometricPrecision; image-rendering:optimizeQuality; fill-rule:evenodd; clip-rule:evenodd"
viewBox="0 0 2971.38 2971.38"
 xmlns:xlink="http://www.w3.org/1999/xlink"
 xmlns:xodm="http://www.corel.com/coreldraw/odm/2003">
 <defs>
  <style type="text/css">
   <![CDATA[
    .fil0 {fill:none}
    .fil1 {fill:#00AFEF}
    .fil3 {fill:#00AFEF}
    .fil2 {fill:#00AFEF;fill-rule:nonzero}
   ]]>
  </style>
 </defs>
 <g id="Layer_x0020_1">
  <metadata id="CorelCorpID_0Corel-Layer"/>
  <g id="_2056520943600">
   <path class="fil0" d="M1485.69 0c820.52,0 1485.69,665.16 1485.69,1485.69 0,820.52 -665.17,1485.69 -1485.69,1485.69 -820.53,0 -1485.69,-665.17 -1485.69,-1485.69 0,-820.53 665.16,-1485.69 1485.69,-1485.69z"/>
   <path class="fil1" d="M131.01 971.84l131.08 43.49c49.38,15.49 383.46,127.91 401.32,127.99 11.92,-20.93 27.35,-61.72 47.2,-95.88 17.42,-30.03 36.35,-58.12 56.72,-87.34 21.74,-31.15 72.27,-89.94 101.19,-115.6 6.36,-5.65 32.81,-29.06 37.35,-36.14 -4.08,-11.66 -69.11,-97.62 -80.93,-113.71 -26.73,-36.38 -54.67,-75.13 -81.43,-112.92l-164.68 -226.06c-19.9,5.8 -125.09,109.94 -139.48,124.36 -80.77,80.82 -168.01,203.54 -225.53,306.85 -14,25.16 -83.49,161.45 -82.82,184.95z"/>
   <path class="fil2" d="M894.03 1568.2l-45.92 0 -32.14 -43.49 -72 0 0 43.49 -36.97 0 0 -80.47 126.14 0c6.52,0 12.31,-2.18 16.92,-6.77 4.59,-4.82 7,-10.38 7,-16.91 0,-6.53 -2.41,-12.08 -7,-16.92 -4.6,-4.59 -10.4,-6.77 -16.92,-6.77l-126.14 0 0 -37.21 126.14 0.23c8.45,0 16.19,1.45 23.67,4.84 14.74,6.52 25.62,17.4 32.38,32.39 3.14,7.73 4.84,15.7 4.84,23.44 0,7.73 -1.7,15.7 -4.84,23.44 -6.52,14.74 -16.92,25.37 -31.41,31.89l36.25 48.81zm658.98 0l-187.03 0 0 -36.97 187.03 0 0 36.97zm0 -127.34l-187.03 0 0 -36.96 187.03 0 0 36.96zm-15.22 63.55l-156.83 0 0 -36.96 156.83 0 0 36.96zm160.83 63.8l-79.74 0c-7.25,0 -14.01,-1.2 -20.3,-3.86 -13.04,-5.32 -22.71,-14.01 -28.99,-26.82 -2.9,-6.04 -4.36,-12.81 -4.36,-19.82l36.97 0c0,2.9 0.97,5.33 2.66,7.26 1.7,2.17 3.86,3.62 6.52,4.59 2.43,0.96 5.08,1.68 7.49,1.68l79.74 0c2.41,0 5.07,-0.72 7.49,-1.68 2.66,-0.97 4.84,-2.42 6.52,-4.59 1.7,-1.93 2.66,-4.36 2.66,-7.26 0,-2.89 -0.96,-5.32 -2.66,-7.25 -1.69,-1.93 -3.86,-3.62 -6.52,-4.59 -2.43,-1.21 -5.08,-1.69 -7.49,-1.69l-79.74 0c-7.25,0 -14.01,-1.22 -20.3,-3.63 -13.04,-5.31 -22.71,-14.26 -28.99,-26.82 -2.9,-6.04 -4.36,-12.81 -4.36,-19.81 0,-7.25 1.45,-13.78 4.36,-20.05 6.27,-12.56 15.95,-21.51 28.99,-26.59 6.29,-2.66 13.05,-3.86 20.3,-3.86l79.74 0c7.25,0 14.01,1.2 20.3,3.86 13.04,5.08 22.71,14.03 28.99,26.59 2.9,6.27 4.36,12.81 4.36,20.05l-36.97 0c0,-2.9 -0.96,-5.31 -2.66,-7.25 -1.69,-2.18 -3.86,-3.63 -6.52,-4.6 -2.43,-1.2 -5.08,-1.68 -7.49,-1.68l-79.74 0c-2.41,0 -5.07,0.48 -7.49,1.68 -2.66,0.97 -4.82,2.43 -6.52,4.6 -1.69,1.93 -2.66,4.34 -2.66,7.25 0,2.89 0.97,5.32 2.66,7.25 1.7,1.93 3.86,3.38 6.52,4.59 2.43,0.97 5.08,1.45 7.49,1.45l79.74 0c7.25,0 14.01,1.45 20.3,4.11 13.04,5.07 22.71,14.01 28.99,26.58 2.9,6.29 4.36,12.81 4.36,19.81 0,7.01 -1.45,13.78 -4.36,19.82 -6.27,12.81 -15.95,21.51 -28.99,26.82 -6.29,2.66 -13.06,3.86 -20.3,3.86zm160.09 0l-36.97 0 0 -128.07 -59.93 0 0 -36.96 156.83 0 0 36.96 -59.92 0 0 128.07zm171.91 0l-36.97 0 0 -128.07 -59.93 0 0 -36.96 156.83 0 0 36.96 -59.92 0 0 128.07zm233.76 0l-42.29 0 -66.21 -118.15 -66.21 118.15 -42.29 0 92.3 -165.03 32.39 0 92.3 165.03zm-918.74 0l-36.73 0 0 -107.77 -56.55 80.7 -30.19 0 -56.55 -80.7 0 107.77 -36.97 0 0 -165.03 41.81 0 66.69 95.19 66.7 -95.19 41.8 0 0 165.03zm-225.84 0l-42.29 0 -66.21 -118.15 -66.21 118.15 -42.29 0 92.3 -165.03 32.38 0 92.3 165.03z"/>
   <path class="fil3" d="M154.64 1125.76l-69.06 -20.28c-12.12,24.81 -31.33,142.8 -36.59,175.83 -30.09,188.69 -10.18,407.61 35.95,584.49 17.28,-1.28 407.64,-129.33 464.4,-148.71 20.28,-6.93 48.12,-14 67.8,-22.1 2.26,-8.43 -11.65,-82.44 -14.16,-99.9 -9.05,-63.12 -10.2,-153.01 -0.61,-215.51l16.76 -100.49 -13.58 -6.89c-6.22,-2.07 -10.47,-3.16 -16.89,-5.31l-434.03 -141.12z"/>
   <path class="fil1" d="M130.33 2000.63c4.13,30.53 63.97,148.69 82.82,182.31 46.06,82 100.1,164.17 161.57,235.97 41.67,48.65 85.33,93.4 129.51,135.51 20.1,19.16 47,43.18 71.8,60.66 9.86,-5.33 33.76,-41.82 42.21,-53.54 60.98,-84.52 144.31,-203.34 205.03,-282.46 14.77,-19.24 27.08,-37.47 41.6,-57.03 7.98,-10.74 12.52,-17.34 20.38,-27.82 5.09,-6.79 16.03,-21.02 20.63,-30.12 -4.92,-11.17 -26.24,-26.56 -35.4,-35.12 -58.69,-54.8 -118.89,-133.77 -159.13,-204.35 -19.35,-33.98 -37.75,-79.51 -47.94,-97.31 -13.42,-0.05 -234.73,74.72 -266.19,84.67 -32.43,10.26 -256.78,80.47 -266.9,88.63z"/>
   <path class="fil1" d="M691.95 2699.63c167.6,113.32 315.61,163.2 509.95,208.79 55.46,13.01 154.98,26.47 214.78,25.78 0,-62.74 4.34,-544.89 -2.56,-562.25 -78.16,-6.28 -148.46,-20.87 -215.98,-44.05 -32.99,-11.34 -62.75,-23.69 -91.77,-37.08 -30.66,-14.13 -56.47,-31.49 -85.01,-45.31 -12.66,9.46 -31.68,41 -41.54,54.5 -15.85,21.74 -27.88,38.28 -41.58,57.1 -25.49,35.04 -56.06,76.28 -82.93,114.37 -18.88,26.77 -160.47,216.01 -163.37,228.14z"/>
   <path class="fil1" d="M1555.96 2934.52c39.79,2.83 168.59,-16.28 210.48,-25.36 68,-14.74 127.36,-29.78 189.01,-50.58 73.07,-24.65 264.42,-108.93 323.28,-158.94 -2.17,-11.69 -67.67,-97.08 -80.3,-114.62l-246.95 -339.16 -89.31 46.29c-28.88,13.3 -63.97,27.53 -96.22,38.35 -58.81,19.75 -105.48,28.88 -166.46,37.19 -50.25,6.84 -44.86,-1.66 -44.59,24.51 0.44,45.08 -2.88,516.52 1.05,542.34z"/>
   <path class="fil1" d="M2064.99 2161.28c3.46,12.32 64.52,92.24 79.77,113.87 27.15,38.47 53.45,72.94 83.15,114.08 20.66,28.6 155.6,218.15 166.08,225.95 24.54,-12.22 119.05,-104.12 139.49,-125.59 83.76,-88.07 167.57,-200.53 225.03,-307.54 12.05,-22.44 83.21,-160.85 82.38,-183.13l-531.25 -172.88c-17.34,22.64 -64.77,170.09 -207.09,300.26 -11.86,10.84 -22.27,22.89 -37.56,34.97z"/>
   <path class="fil3" d="M2351.97 1276.85c3.17,46.84 23.27,94.46 23.27,193.89 0,58.95 -2.82,75.34 -7.37,132.61 -1.63,20.47 -16.8,78.38 -14.54,91.12 42.07,16.03 86.73,28.06 131.79,43.21l400.47 128.89c40.89,-168.28 51.11,-238.96 51.11,-412.75 0,-112.84 -23.43,-249.6 -50.61,-348.59 -33.05,3.75 -460.58,151.84 -534.12,171.61z"/>
   <path class="fil1" d="M2064.66 808.37c9.44,11.3 51.06,46.23 72.67,70.66 51.48,58.16 84.75,100.72 122.69,167.82l49.43 97.05 531.78 -171.59c-1.74,-26.46 -67.76,-156.34 -82.24,-182.59 -30.5,-55.29 -66.7,-111.91 -104,-163.38 -47.41,-65.43 -128.21,-157.09 -188.12,-209.44 -20.68,-18.08 -49.94,-47.55 -72.87,-61.57 -9.71,7.77 -154.52,210.97 -165.26,225.72 -23.77,32.65 -53.93,72.25 -81.89,112.44l-82.19 114.87z"/>
   <path class="fil1" d="M1555.07 597.88c39.17,6.6 76.95,8.49 113.54,16.85 170.33,38.89 271.38,107.5 282.87,109.93l286.79 -393.19c8.87,-12.47 36.79,-46.99 40.91,-58.62 -6.55,-7.56 -24.93,-17.73 -35.41,-24.33 -12.84,-8.07 -25.07,-15.27 -37.16,-22.2 -25.81,-14.79 -53.1,-28.94 -79.2,-42.23 -109.64,-55.79 -233.62,-95.98 -356.54,-121.51 -48.4,-10.05 -167.7,-29.5 -215.24,-25.46l-0.55 560.77z"/>
   <path class="fil1" d="M691.71 272.84l244.37 338.82c12.91,17.2 74.88,106.12 85.28,113.29l86.02 -45.11c28.84,-13.72 61.38,-26.36 91.93,-37.2 87.42,-31.04 201.13,-39.83 216.39,-45.66l0.99 -558.87c-112.13,-5.6 -298.57,39.56 -404.93,75.7 -66.11,22.46 -286.33,118.89 -320.04,159.03z"/>
  </g>
 </g>
</svg>
