<svg xmlns="http://www.w3.org/2000/svg" xml:space="preserve" style="shape-rendering:geometricPrecision;text-rendering:geometricPrecision;image-rendering:optimizeQuality;fill-rule:evenodd;clip-rule:evenodd" viewBox="0 0 9468.36 2086.21">
  <defs>
    <style>
      .ramestta_logo_svg__fil0,.ramestta_logo_svg__fil2,.ramestta_logo_svg__fil3{fill:#fefefe}.ramestta_logo_svg__fil0,.ramestta_logo_svg__fil3{fill-rule:nonzero}.ramestta_logo_svg__fil0{fill:#5c34a3}
    </style>
  </defs>
  <g id="ramestta_logo_svg__Layer_x0020_1">
    <g id="ramestta_logo_svg___2403200736528">
      <path class="ramestta_logo_svg__fil0" d="M3131.79 1397.67h-197.37l-138.5-186.63h-309.37v186.63h-158.76v-345.39h542.75c28.05 0 52.11-10.04 72.02-29.95 19.91-19.91 29.95-43.97 29.95-72.02 0-28.39-10.04-52.63-29.95-72.54-19.91-19.91-43.97-29.95-72.02-29.95h-542.75V688.54l542.75.52c35.83 0 69.42 6.93 100.93 20.78 64.23 28.39 110.63 74.79 139.37 139.02 13.85 33.76 20.95 67.69 20.95 101.45 0 33.41-7.1 67.17-20.95 100.93-27.7 62.5-72.54 108.2-134.87 136.94l155.81 209.48z"/>
      <path id="ramestta_logo_svg___1" class="ramestta_logo_svg__fil0" d="M4102.5 1397.67h-181.61l-284.62-508.3-284.96 508.3H3169.7l397.15-709.12h138.5z"/>
      <path id="ramestta_logo_svg___2" class="ramestta_logo_svg__fil0" d="M5073.74 1397.67h-158.76V934.04l-243.07 346.95h-129.84l-242.38-346.95v463.63h-159.28V688.55h180.06l286.52 409.44 286.69-409.44h180.06z"/>
      <path id="ramestta_logo_svg___3" class="ramestta_logo_svg__fil0" d="M6043.93 1397.67h-181.61l-284.61-508.3-284.97 508.3h-181.61l397.15-709.12h138.51z"/>
      <path id="ramestta_logo_svg___4" class="ramestta_logo_svg__fil0" d="M6590.67 1397.67h-342.44c-30.82 0-60.07-5.54-87.78-16.79-55.75-22.33-96.95-60.42-123.79-114.61-12.81-26.66-19.22-55.23-19.22-85.7h159.28c0 12.46 3.64 23.02 11.08 31.68 7.44 8.66 16.79 15.24 27.7 19.56 11.08 4.33 21.98 6.58 32.72 6.58h342.44c10.74 0 21.81-2.25 32.89-6.58 11.08-4.33 20.43-10.91 27.87-19.56 7.44-8.66 11.25-19.22 11.25-31.68 0-12.12-3.81-22.51-11.25-31.17-7.44-8.65-16.79-15.23-27.87-19.74-11.08-4.67-22.16-6.93-32.89-6.93h-342.44c-30.82 0-60.07-5.37-87.78-16.27-55.75-22.33-96.95-60.42-123.79-114.61-12.81-26.66-19.22-55.23-19.22-85.7 0-30.47 6.41-59.04 19.22-85.7 26.83-54.19 68.04-92.28 123.79-114.61 27.7-10.91 56.96-16.28 87.78-16.28h342.44c30.99 0 60.25 5.37 87.6 16.28 56.27 22.33 97.64 60.42 124.3 114.61 12.47 26.66 18.87 55.22 18.87 85.7h-158.76c0-12.12-3.81-22.51-11.25-31.17-7.44-8.65-16.79-15.23-27.87-19.74-11.08-4.67-22.16-6.93-32.89-6.93h-342.44c-10.74 0-21.64 2.25-32.72 6.93-10.91 4.5-20.26 11.08-27.7 19.74-7.44 8.66-11.08 19.05-11.08 31.17 0 12.46 3.64 23.02 11.08 31.51 7.44 8.48 16.79 14.89 27.7 19.56 11.08 4.5 21.98 6.75 32.72 6.75h342.44c30.99 0 60.25 5.54 87.6 16.8 56.27 22.33 97.64 60.42 124.3 114.61 12.47 26.66 18.87 55.06 18.87 85.18 0 30.47-6.41 59.04-18.87 85.7-26.66 54.19-68.04 92.28-124.3 114.61-27.35 11.25-56.61 16.79-87.6 16.79z"/>
      <path id="ramestta_logo_svg___5" class="ramestta_logo_svg__fil0" d="M7481.74 1397.67h-341.92c-31.85 0-61.46-5.89-89.33-17.83-57.13-25.28-98.16-66.31-123.26-123.27-12.12-28.05-18.18-57.82-18.18-89.68V921.91c0-31.51 6.06-61.28 18.18-89.33 25.1-56.79 66.13-97.81 123.26-123.27 27.87-12.12 57.48-18.18 89.33-18.18h341.92c31.68 0 61.63 6.06 89.68 18.18 56.78 25.45 97.99 66.48 123.26 123.27 11.78 28.05 17.83 57.82 17.83 89.33h-158.76c0-19.91-7.1-36.87-21.12-50.72-14.02-13.85-30.99-20.78-50.9-20.78h-341.92c-19.91 0-36.88 6.93-50.9 20.78-14.2 13.85-21.12 30.81-21.12 50.72v244.98c0 19.91 6.92 36.87 21.12 50.9 14.02 14.02 30.99 21.12 50.9 21.12h341.92c19.91 0 36.88-7.1 50.9-21.12 14.02-14.02 21.12-30.99 21.12-50.9h158.76c0 31.85-6.06 61.63-17.83 89.68-25.28 56.96-66.48 97.99-123.26 123.27-28.05 11.94-58 17.83-89.68 17.83z"/>
      <path id="ramestta_logo_svg___6" class="ramestta_logo_svg__fil0" d="M8626.97 1397.67h-181.61l-284.62-508.3-284.96 508.3h-181.61l397.15-709.12h138.5z"/>
      <path id="ramestta_logo_svg___7" class="ramestta_logo_svg__fil0" d="M9468.36 1397.67h-192.34l-452.38-508.3v508.3h-158.76V688.55h191.66l453.07 508.29V688.55h158.75z"/>
      <circle cx="1043.1" cy="1043.1" r="1043.11" style="fill:#5c34a3"/>
      <path class="ramestta_logo_svg__fil2" d="M485.81 1895.41c117.67 79.56 221.58 114.58 358.04 146.59 38.94 9.14 108.81 18.59 150.8 18.1 0-44.05 3.05-382.56-1.8-394.75-54.86-4.41-104.22-14.65-151.63-30.94-23.16-7.95-44.05-16.63-64.44-26.03-21.52-9.92-39.64-22.11-59.68-31.81-8.88 6.64-22.24 28.78-29.16 38.26-11.14 15.26-19.58 26.88-29.2 40.09-17.89 24.6-39.35 53.56-58.22 80.3-13.26 18.79-112.67 151.66-114.7 160.18zM59.63 1309.97c12.13-.9 286.2-90.8 326.06-104.41 14.25-4.87 33.79-9.83 47.6-15.52 1.59-5.92-8.18-57.88-9.94-70.15-6.36-44.32-7.15-107.43-.41-151.31l11.76-70.55-9.53-4.84c-4.36-1.45-7.35-2.22-11.85-3.72l-304.73-99.08C98 786.82 70.08 776.5 60.11 776.15c-8.52 17.42-22 100.26-25.7 123.45-21.13 132.48-7.15 286.18 25.24 410.37zM1651.31 896.47c2.23 32.89 16.35 66.33 16.35 136.13 0 41.39-1.98 52.9-5.18 93.11-1.15 14.38-11.79 55.03-10.2 63.98 29.53 11.26 60.89 19.7 92.53 30.34l281.16 90.5c28.7-118.15 35.89-167.78 35.89-289.79 0-79.22-16.46-175.24-35.54-244.74-23.2 2.64-323.37 106.61-375.01 120.49zM485.64 191.56l171.57 237.89c9.07 12.07 52.58 74.51 59.89 79.54l60.39-31.67c20.24-9.63 43.09-18.5 64.55-26.12 61.37-21.8 141.21-27.96 151.92-32.06l.69-392.38c-78.72-3.93-209.63 27.78-284.29 53.15-46.41 15.77-201.03 83.47-224.71 111.65zM91.98 682.33l92.04 30.53c34.67 10.88 269.22 89.81 281.75 89.86 8.38-14.69 19.22-43.33 33.15-67.32 12.24-21.07 25.52-40.8 39.83-61.31 15.26-21.87 50.75-63.15 71.05-81.17 4.46-3.96 23.03-20.4 26.22-25.37-2.86-8.19-48.53-68.54-56.82-79.83a5680.882 5680.882 0 0 1-57.16-79.28L406.41 249.72c-13.97 4.08-87.82 77.2-97.93 87.32-56.7 56.75-117.95 142.91-158.34 215.44-9.83 17.67-58.62 113.35-58.15 129.86zM1092.43 2060.33c27.95 1.99 118.37-11.43 147.78-17.8 47.75-10.35 89.42-20.91 132.71-35.52 51.3-17.31 185.64-76.48 226.98-111.59-1.53-8.2-47.52-68.16-56.39-80.48l-173.38-238.13-62.7 32.5c-20.29 9.34-44.92 19.33-67.56 26.93-41.3 13.86-74.06 20.28-116.87 26.11-35.28 4.81-31.51-1.17-31.32 17.21.33 31.65-2.01 362.65.74 380.77zM1449.83 1517.44c2.43 8.65 45.3 64.76 56.02 79.94 19.06 27 37.52 51.21 58.37 80.1 14.5 20.09 109.25 153.17 116.61 158.64 17.23-8.58 83.59-73.1 97.93-88.18 58.81-61.83 117.66-140.8 158-215.92 8.46-15.75 58.42-112.93 57.84-128.57l-373-121.38c-12.17 15.89-45.46 119.42-145.4 210.81-8.33 7.62-15.64 16.08-26.37 24.56zM91.5 1404.64c2.91 21.44 44.91 104.4 58.17 128 32.33 57.58 70.28 115.27 113.43 165.67 29.25 34.17 59.91 65.58 90.92 95.15 14.12 13.46 33 30.31 50.41 42.59 6.94-3.75 23.71-29.37 29.65-37.6 42.82-59.34 101.31-142.76 143.95-198.31 10.37-13.51 19.01-26.3 29.21-40.04 5.6-7.55 8.79-12.17 14.31-19.54 3.57-4.76 11.24-14.76 14.48-21.15-3.46-7.85-18.42-18.65-24.86-24.66-41.2-38.47-83.46-93.92-111.72-143.48-13.6-23.85-26.52-55.82-33.67-68.31-9.41-.03-164.8 52.46-186.88 59.44-22.78 7.21-180.29 56.5-187.4 62.22zM1091.82 419.77c27.49 4.63 54.02 5.96 79.72 11.83 119.58 27.3 190.53 75.47 198.61 77.18l201.35-276.06c6.23-8.75 25.82-32.99 28.72-41.16-4.61-5.31-17.51-12.45-24.87-17.08-9.02-5.67-17.59-10.72-26.09-15.59-18.13-10.38-37.29-20.32-55.61-29.65-76.97-39.18-164.02-67.39-250.32-85.32-33.98-7.06-117.74-20.71-151.13-17.87l-.37 393.72zM1449.59 567.55c6.64 7.93 35.85 32.46 51.03 49.61 36.14 40.83 59.51 70.72 86.15 117.83l34.7 68.13 373.36-120.47c-1.22-18.57-47.57-109.76-57.74-128.19-21.41-38.81-46.83-78.57-73.02-114.71-33.28-45.93-90.02-110.28-132.08-147.04-14.52-12.69-35.06-33.39-51.16-43.22-6.82 5.45-108.5 148.12-116.04 158.47-16.69 22.93-37.87 50.73-57.5 78.95l-57.71 80.65z"/>
      <path class="ramestta_logo_svg__fil3" d="M624.1 1092.55h-27.53l-19.31-26.03h-43.15v26.03h-22.14v-48.17h75.7c3.91 0 7.27-1.4 10.04-4.18 2.78-2.78 4.18-6.13 4.18-10.05 0-3.96-1.4-7.34-4.18-10.11-2.78-2.78-6.13-4.18-10.04-4.18h-75.7v-22.22l75.7.07c5 0 9.68.96 14.07 2.9 8.96 3.96 15.43 10.43 19.44 19.39 1.93 4.71 2.92 9.44 2.92 14.15 0 4.66-.99 9.37-2.92 14.08-3.87 8.72-10.12 15.09-18.81 19.1l21.73 29.22z"/>
      <path id="ramestta_logo_svg___1_0" class="ramestta_logo_svg__fil3" d="M759.48 1092.55h-25.33l-39.69-70.89-39.74 70.89h-25.34l55.39-98.9h19.32z"/>
      <path id="ramestta_logo_svg___2_1" class="ramestta_logo_svg__fil3" d="M894.94 1092.55H872.8v-64.66l-33.9 48.38h-18.11l-33.81-48.38v64.66h-22.21v-98.9h25.11l39.96 57.1 39.99-57.1h25.11z"/>
      <path id="ramestta_logo_svg___3_2" class="ramestta_logo_svg__fil3" d="M1030.25 1092.55h-25.33l-39.69-70.89-39.74 70.89h-25.33l55.39-98.9h19.31z"/>
      <path id="ramestta_logo_svg___4_3" class="ramestta_logo_svg__fil3" d="M1147.68 1092.55h-112.13v-22.14h112.13v22.14zm0-76.4h-112.13v-22.14h112.13v22.14zm-9.06 38.2h-94.1v-22.14h94.1v22.14z"/>
      <path id="ramestta_logo_svg___5_4" class="ramestta_logo_svg__fil3" d="M1234.96 1092.55h-47.76c-4.3 0-8.38-.77-12.24-2.34-7.78-3.11-13.52-8.43-17.26-15.98-1.79-3.72-2.68-7.7-2.68-11.95h22.21c0 1.74.51 3.21 1.55 4.42a9.96 9.96 0 0 0 3.86 2.73c1.55.6 3.07.92 4.56.92h47.76c1.5 0 3.04-.31 4.59-.92 1.54-.61 2.85-1.52 3.89-2.73s1.57-2.68 1.57-4.42c0-1.69-.53-3.14-1.57-4.35-1.04-1.2-2.34-2.12-3.89-2.75-1.55-.65-3.09-.96-4.59-.96h-47.76c-4.3 0-8.38-.75-12.24-2.27-7.78-3.11-13.52-8.43-17.26-15.98-1.79-3.72-2.68-7.7-2.68-11.95 0-4.25.89-8.23 2.68-11.95 3.74-7.56 9.49-12.87 17.26-15.98 3.86-1.52 7.94-2.27 12.24-2.27h47.76c4.32 0 8.41.75 12.22 2.27 7.85 3.11 13.62 8.43 17.33 15.98 1.74 3.72 2.63 7.7 2.63 11.95H1245c0-1.69-.53-3.14-1.57-4.35-1.04-1.2-2.34-2.12-3.89-2.75-1.55-.65-3.09-.96-4.59-.96h-47.76c-1.5 0-3.02.31-4.56.96-1.52.63-2.82 1.55-3.86 2.75-1.04 1.21-1.55 2.66-1.55 4.35 0 1.74.51 3.21 1.55 4.4 1.04 1.18 2.34 2.07 3.86 2.73 1.55.63 3.07.94 4.56.94h47.76c4.32 0 8.41.77 12.22 2.34 7.85 3.11 13.62 8.43 17.33 15.98 1.74 3.72 2.63 7.68 2.63 11.88 0 4.25-.89 8.24-2.63 11.95-3.72 7.56-9.49 12.87-17.33 15.98-3.81 1.57-7.9 2.34-12.22 2.34z"/>
      <path id="ramestta_logo_svg___6_5" class="ramestta_logo_svg__fil3" d="M1331.01 1092.55h-22.14v-76.76h-36v-22.14h94.09v22.14h-35.95z"/>
      <path id="ramestta_logo_svg___7_6" class="ramestta_logo_svg__fil3" d="M1434.09 1092.55h-22.14v-76.76h-36v-22.14h94.09v22.14h-35.95z"/>
      <path id="ramestta_logo_svg___8" class="ramestta_logo_svg__fil3" d="M1574.23 1092.55h-25.33l-39.69-70.89-39.74 70.89h-25.33l55.39-98.9h19.31z"/>
    </g>
  </g>
</svg>
